<svg xmlns="http://www.w3.org/2000/svg" viewBox="0 0 347 30" fill="blue">
    <path xmlns="http://www.w3.org/2000/svg" d="m67.1 22.3-.3.2h-.1l-.2.2c-.1.1-.2.1-.4 0l-.5.4-.3.1c-.3.2-.4.2-.6 0 0 .3-.4.3-.6.2H64a8 8 0 0 1-.8 0h-.7a14.5 14.5 0 0 0-1.2 0c-.1 0-.3-.1-.4 0a1 1 0 0 1-.4 0h-.7l-.4-.1H59c-.1 0-.3-.1-.4 0h-.5a3.5 3.5 0 0 0-.5 0 4.8 4.8 0 0 0-.4 0c-.2 0-.4 0-.5-.3l-.2.2H56a15.7 15.7 0 0 0-.4 0h-1.1c-.3-.1-.6-.2-1 0l-1-.1-.4-.1h-1.2l-.6-.1H49l-.1-.1H47.2l-.4-.1h-.9c-.2-.2-.5-.2-.7-.2a2 2 0 0 1-.4 0h-.2c-.2-.1-.4-.2-.7 0l-.1-.1a.7.7 0 0 0-.6-.1h-.6c-.2-.2-.5-.1-.7 0a1 1 0 0 1-.5 0l-.1-.1c-.2-.1-.4-.2-.6-.1H39.9l-.2-.1h-.4l-1.2-.3c-.2.1-.3 0-.4 0H37s-.2 0-.2-.2c-.4.2-.7.1-1 0h-.5c-.3 0-.5 0-.8-.2-.3-.2-.5-.2-.8-.1h-.5a5.3 5.3 0 0 0-.7-.2 3.4 3.4 0 0 1-.5-.1h-.2l-.6-.1H31l-.4-.1c-.2 0-.5 0-.7-.2h-.1l-.3-.1a23 23 0 0 0-1.7-.3H27l-.2-.1c-.1 0-.2 0-.3-.2a1 1 0 0 0-.7-.1H25l-.5-.1a5.8 5.8 0 0 0-.9-.1h-.3l-.1-.1-.3-.1-.8-.2-.8-.2a46.4 46.4 0 0 1-1.2-.2h-.5a2 2 0 0 0-.6-.2H19l-.2-.1-.6-.1h-.2l-.3-.2c-.2 0-.5-.2-.8-.1l-.2-.1-.4-.2h-.6l-.5-.1a34.3 34.3 0 0 1-1.5-.4l-.3-.1h-.4l-.3-.1H12.3l-.4-.2a2 2 0 0 0-.8-.2h-.4l.3.1.4.4h.3l.2.1.2.2h.3l.1.2v.2c.4 0 .7.2.8.5l.4.2.1.1h.3a.1.1 0 0 1 .1.1l.2.1s.2.1.2.3h.2l.2.2a1 1 0 0 0 .5.3c.2 0 .4.1.3.3h.1l.2.2h.2c.2 0 .3 0 .4.2h.1v.2l.8.5v.1h.4l-.2.2.5.2h.2l.4.3.2.2c.1 0 .2 0 .3.2l.1.2.6.3c.4.1.7.3.8.6h.1l.7.3.3.2c.1.2.3.3.6.4l.4.2.6.5c.3 0 .5.2.7.4l.3.2c.2 0 .3.2.4.3a3.4 3.4 0 0 0 .6.5l.1.1.2.2c.3.2.5.4.8.3l.1.1h.1l.3.3h.2l.2.4.4.2.2.1.3.2c.1 0 .2 0 .2.2l.3.2.2.2.2.1.3.1a19.7 19.7 0 0 1 .9.6h.1a2.5 2.5 0 0 1 .3.3l.3.1.3.2a6 6 0 0 0 .8.4 17.4 17.4 0 0 1 1 .6h.4v.2a15.5 15.5 0 0 1 .4.2c.2 0 .4.2.5.3h.3v.1l.2.1.3.2.2.1c0 .2.2.3.4.3a4.3 4.3 0 0 1 .1.1l.2.1.2.1.5.5h-.2v.2l-.1.2-.6-.1.3.6h-.1l.1.1h.3l.2.3v.1l-.2.1H37.5l.1.2H36.9v.2l.2.1-.1.2h-.2l.7.6h-.2.3l-.1.3h.2s-.2.1-.2 0c-.2 0-.3 0-.4.2l.2.2h-.4v-.1l-.2-.1a42 42 0 0 0-.5-.4h-.4l-.4-.2-.2-.2-.4-.3-.4-.1-.2-.2H34l-.3-.2h-.1l-.2-.1-.6-.3h-.1l-.3-.2c0-.2-.2-.2-.3-.2h-.3l-.1-.2-.3-.1-.3-.3-.7-.4h-.1l-.3-.2-.2-.2h-.1c-.2-.3-.4-.4-.6-.5l-.3-.2-.4-.1c-.2-.1-.4-.2-.5-.5h-.1l-.4-.2-.5-.3-.2-.1-.2-.2h-.2v-.1c-.1-.2-.5-.5-.7-.5l-.5-.3c-.2 0-.3-.1-.3-.3l-.1-.1-.3-.1c-.4-.2-.6-.4-.8-.7h-.1v-.1c-.2 0-.2-.1-.3-.2l-.2-.1c-.2-.2-.4-.4-.7-.3 0-.1 0-.2-.2-.2a6 6 0 0 0-1-.6l-.1-.1V27H21V27c-.1-.1-.2-.2-.3 0l-.3-.1-.1-.3-.5-.3-.4-.2-.2-.2c-.1-.2-.3-.2-.4-.2l-.2-.1-.3-.2a16.3 16.3 0 0 0-.6-.4l-.3-.1-.2-.1-.2-.3-.2-.1h-.1v-.2h-.2l-.1-.1-.1-.1a1 1 0 0 0-.6-.4c0-.2-.4-.4-.7-.4V23l-.2-.1-.1-.2c-.2 0-.3-.2-.5 0l-.1-.1-.3-.3c-.2-.2-.3-.4-.6-.4h-.1l-.1-.2-.6-.4h-.2l-.1-.2c-.2 0-.4-.1-.5-.3h-.1c0-.2-.2-.3-.4-.2a3.1 3.1 0 0 1-.4-.2l-.2-.2-.2-.2c-.3 0-.5-.1-.7-.3l-.2-.2h-.3l-.3-.1-.1-.2-.3-.3H8l-.5-.4-.3-.2H7c-.1 0-.3 0-.3-.2h-.1l-.4-.2-.2-.2a6.3 6.3 0 0 0-.8-.3l-.4-.2c-.6-.3-1.2-.5-1.9-.4-.2 0-.3 0-.2-.3h-.2c0-.2-.2-.2-.3-.2h-.5L2 16l.1-.1v-.3l-.3-.1-.4-.2.6-.4h-.5.2l-.1-.4h-.2L.8 14l.1-.1c.1-.2.2-.3.5-.3l-.4-.3.4-.3v-.3l.4-.3h.5c0-.1.1-.2.3-.2h.1c.2.1.3.2.5 0h.1V12h.3c.2 0 .2 0 .3.2 0 .2.1.2.3.2l.3-.1-.1-.2-.4.2c0-.3 0-.3.5-.4l.1.2v-.2H5.3c0-.2 0-.2.2-.2l.3-.1c.2-.2.3 0 .3 0l.2-.2h.3l.3-.1.1-.3H8l.4-.2h.3l.2-.2a3 3 0 0 0 0 .1l.4-.2.4.1h.1l.2-.1h.1l.1-.2h.6v-.1c.3 0 .4-.2.6-.3l.1-.1h.6c0-.1 0-.2.3 0H12.8v.2l-.1-.2-.2.3c0 .1.1.2.2 0l.2-.2c0-.2.2-.2.3 0H13h.3l-.1-.2v-.2h.2l.3.1.2-.1c0-.1 0-.2.3-.2V9h.8l.2-.1.4-.1c.3 0 .4-.2.3-.4v-.2c0 .2 0 .3.2.3l.3-.1h-.1c.3.1.4 0 .6-.3.1.2.1.2.3 0L18 8c.3 0 .7-.2 1-.4h.1V8h.1c.2 0 .3 0 .3-.2h.2c0 .1.2 0 .2 0h.1l-.3-.3.5-.2.4.4v-.4l.2-.2c.2 0 .3.1.3.3l.4-.2c-.1-.2-.2-.3.1-.3h.5l.2-.3V6.9l.5-.2v-.1l.2-.1.2-.1h.2L24 6l.6-.3.6-.2.4-.2h.1v.2-.1l.2-.2h.2l.1-.1h.1c0 .3 0 .3.2.2h.1-.2c0-.3 0-.3.2-.3v.2V5c.1-.2.2-.2.3 0h.1l.2-.2.1-.1.2-.1.2-.1.2-.1a.7.7 0 0 0 .6-.2c0-.1.1-.1.2 0l.1.1h.1v-.2l.2-.2c0 .3 0 .3.5.2l-.3-.3v-.2c.2.1.2.2.4.1l.2-.1.1.1c.1.1.2.2 0 .4h.2c0-.2.2-.2.4-.2l.1-.1-.2-.2c0-.2.3-.3.6-.4l.3-.1h.3l.4.3.2-.1.3-.2h.1l.3-.2c.3-.1.3-.1.3-.4H33v.3l-.1-.2c0 .3-.2.3-.4.2h-.2a87.2 87.2 0 0 0 1.8-.5v.1c.1-.1.2-.2 0-.4h.5l.1-.2.5-.1a.5.5 0 0 0 .4 0h.1l.2.1.2-.2h.3v-.1h-.5v-.1h.2v-.2h.3l.3-.2v.3h.2l.5-.1h.1V.7l.3.1-.2-.2.5.1c-.3 0-.4.2-.4.3l.7-.2-.1.4.4-.4V.5l.3.1V1l.3.1h.7v.3h.1l.1-.1.3.2c0 .2-.1.2-.3.1-.2 0-.1.2 0 .3H40c-.2 0-.2 0-.1.2l-.2.1h.5l.2-.1H41l.5-.1h.4v.2c-.1.1-.3.1-.4 0-.1 0-.2 0-.3.2L41 2l-.4.1V2.4c-.2 0-.2.2-.1.3l.3.1.2.2-.1.3H40.7l-.2.1h.6v.4h.6l.2.1h.3c0 .3-.2.3-.3.3h-.2V4.5a.8.8 0 0 1-.6 0H41l-.7.2a57.4 57.4 0 0 1-.8.1L39 5l-.3.2a30.5 30.5 0 0 1-1.4.5H37l-.2.2-.2.1-.3.1h-.2l-.5.2a5 5 0 0 1-1 .4V7l-.1-.1-1 .4.2.2.1-.1.2.1-.1.1-.2.1c-.3 0-.3.1-.4.3h.2s.1.1.1 0H34.2l1-.2h.1l-.6.3c.2.1.1.2 0 .4-.4-.3-.6-.3-.6.2h-.2v.1a8.2 8.2 0 0 0 .5 0h.2c0 .1.2 0 .2 0H35.2c-.3.3-.5.3-.8.2V9a24.7 24.7 0 0 0 0 .2h.2l.1.3c.2-.2.3-.3.5-.2v.2c.3.2.4.3.6 0v.4h-.6c.1.3.1.3-.2.4a5.6 5.6 0 0 0-.7.2l-.5.2a1.8 1.8 0 0 0-.6.2h-.4l-.6.2h-.3l-.3.1a8.7 8.7 0 0 1-1.7.3h-.4l-.4.2h-.8l-.1.1-.2.1h-.4l-.4.1c-.1 0-.3 0-.5.2H25.8l-.6.2H25l-1 .2h-.8l-.2.2h-.4l-.5.1a.4.4 0 0 1-.4 0 .3.3 0 0 0-.3 0l-.3.1h-.7v.1l-.1.1.1.1.2.1v-.3l.2.3-.1.1c0 .2.2.2.3.1h.2l-.3-.2.2-.2h.3v.2l.1.1h.2l-.3-.3h.4l.3.1v.1h.1l.2-.2.6.1v-.1l.1-.1h.2v.2l.2-.2v.2l.2-.2H24.1v.6-.1h.3v-.2l.4-.2h.8l.2.2.1-.1c.2.1.3 0 .3-.1l.3.2h-.1l.4.2c.1-.2.2-.3.4-.3h.3l.2-.1h1v.2l-.1.2h.6c-.2-.2 0-.3.1-.4a.8.8 0 0 0 1 0c-.2.2 0 .2 0 .1v-.2h.1l.2.3.2-.3v.2l.1-.1.8-.1c.2.1.2 0 .2-.1v-.1h.1l.2.4.2-.3.2.1h.7l-.1-.3c.1 0 .3.1.2.3v.2H33.8l.2-.1a.6.6 0 0 1 .5 0 .2.2 0 0 0 .2 0H34.9l.3.1v-.1l.5.2v-.2h.1l.1.1h.1l.2-.1h.4v.2c-.2.2-.4.2-.6 0l.2.3.6-.1.3.1v-.1l-.1-.2h.2l.2.2h.8l-.1-.4h.4s0 .2.2 0h.8c-.2.3-.2.3 0 .3v-.2h.1a.3.3 0 0 1 .3 0c.1.3.3.3.4.2h.2l-.5-.3h.4l.1-.1.2.1.4.2V13l.8.3v-.2h.1v.2l.4-.3v.2l.2-.1h.7c0-.2.1-.2.3-.1h.5l.3.2.3-.2v.2c.2-.2.3-.1.5 0h.1v-.1h.1l.2-.1h.7v.2l.1-.2h.3c.3-.1.4 0 .5.2h.1l.2-.1.2.2-.3.1v.2l.5-.2-.1-.4h.1l.2.2c.3.1.6 0 .8-.3l.1.3c.3 0 .6 0 .9.2h-.4l.2.2h.1l.1-.1h.1v-.2h.2l-.1-.2h.1l.2.2-.4.1c.2.3.3.2.5.1h.2l-.1-.3.1-.2.3.5c.1-.4.2-.4.4-.2v-.2h.7l.3.1a.2.2 0 0 0 .2 0l.2.1v.2l.2-.1.1-.2.2.4h.4l-.2-.3h.2a25 25 0 0 0 .8-.1l.3.2a.2.2 0 0 0 .1 0l.3-.2h.3v-.1h1.1l.1.1.6-.3h.2c.1.1.3.1.3.3h.1l.3-.1.3-.1.2.1.2-.3c0 .3 0 .3.2.3l.4-.2c0 .3.3.3.5.3.3 0 .4.1.4.4l.2-.2v-.3l.1-.1c.1.2.2.3.3 0h.1l.6-.2c.2-.2.3-.1.3 0-.2 0-.3 0-.3.3h.1l.1-.1H63l-.1.2.2-.2v.2l.2-.1.2.1-.2-.1 1.3-.2v.2-.2h.3l-.1-.2.1-.1.2.3.3-.2v.3c.2-.1.2-.2.3-.4l.1-.3.2.1.2-.3.1.3.1-.1h.5V12l.1-.1h.4v-.2h.1v.2l.2-.2h.2v.2l.4.1c.1-.2.2 0 .3 0 0 .1 0 .2.2 0h.9c.1-.3.2-.3.3-.1h.6l.2-.1h.2l-.1.2h.1l.1-.1a.3.3 0 0 1 .3-.1h.4-.2H73.4v.1h.3c.2-.1.4-.2.7 0h.1c.3-.2.7-.1.8.2l.2-.4.1.2.2-.1-.1.5.4-.1c0 .1 0 .1.4 0l-.1-.2h.2c0 .3 0 .3.4.3H77.7l.2.1v.1c-.1 0-.1 0 0 0v.5l.3-.3v-.5h.2v.3h.1c.3-.1.3-.1.4.1l.2.2h.1v-.3h.4l.3.1h.2c.2 0 .4-.2.5-.5.1.3 0 .5-.3.6h.4l-.2.1h.4c.2-.2.2-.2.4 0v-.3c.1.1.3 0 .4 0h.3l.2-.2c.1.3.4.3.7.1.1.1 0 .3 0 .4l.2.1h.6l-.4-.2h-.1v-.2h.5v.1l.6-.2.4.3v-.1l.3-.3h2.1v-.1l.1.2.2-.2c.1.1.2.2.3.1v-.1h.4l.2.5h1.1v.3l-.3.1.3.3h-.2c-.2 0-.3 0-.4.3l1 .3v.4a11.9 11.9 0 0 1-.3-.2v.2l-.1.1c.3.2.4.4.2.5V15.4h.5l-.4.2v.1h.2l.2-.1h.5c0 .2 0 .4.2.5l-.3.1-.2.1-.2.2-.3.1H88.7a13.1 13.1 0 0 1-1 0H85.6l-.2.1h-1.3a16.7 16.7 0 0 1-2 .2H81.3a95.1 95.1 0 0 0-1.4 0l-.5.1H79c-.2-.1-.4-.2-.6 0h-1.7a2.7 2.7 0 0 0-.6 0l-.4.1h-.9a4.3 4.3 0 0 1-.8 0h-.8l-.6.1h-2a29.9 29.9 0 0 1-.7 0 8 8 0 0 0-.4 0h-1.2v.1l-.3.5-.3-.2h.2c0-.3 0-.3-.4-.2v.7l.3-.1.1.2h.1l.2.5v.6h-.3l-.1-.2a4.7 4.7 0 0 1-.1-.2h.2l-.3-.2.3-.1-.3-.4-.2 1c0 .6 0 1.1-.3 1.6h-.2l.1.4-.1.4h-.2l.2.5h-.4l.2.3v-.1h.4Zm-26-18.5h-.4.3Zm18.2 15.3v.1h.2l.4-.1h.2v.2l.3-.3-.1-.2.2.1c0 .1 0 .2.2.2l.2.1a2.6 2.6 0 0 0 0 .1l.1.1v-.2c.2-.1.3 0 .4 0l.1.2h-.2l.3.1v-.4h.2c.1.2.2.3.4.1l.3.1v-.2l.2.2.2-.2.3.2-.2.1-.1.1.1.1h.5l.1-.2V19h.1v.3h.2l-.1-.4.2-.3v.1l.2-.1-.3-.1v-.2l.3.2v-1.2H64l-.6.1H62.5l-.4-.1h-.8a2 2 0 0 0-.4 0 7 7 0 0 1-1 0h-1.6a6 6 0 0 1-.5 0H56.6c-.3.2-.5.1-.7 0a5.8 5.8 0 0 0-.3 0h-1.9a4.9 4.9 0 0 1-.8 0h-6.6a1 1 0 0 1-.5 0h-3.7l-.3.1h-2l-.2.1v-.1h-1.8l-.4-.1h-.6l-.2.1h.2v.2h.4l.3.1a10 10 0 0 0 1 0h2l.2.1H41.6l.6.2h.2c0 .2 0 .2.3.2l.2.1.2-.3.1.2.7.2c0-.1.2-.2.4 0l.3.2.2-.4.4.3h.2l-.2.1h.4l.4.1h.6l-.6-.2.6-.2.2.2.4-.1c.2 0 .3.1.3.3l.4.2h.2v-.1h-.3v-.1h.3l.2-.2.4.2c.1-.2.2-.3.5-.2v.2h.7l.1.1h-.2c0 .2 0 .2.2.2s.1 0 .1-.1v-.3h.2v.2l.9-.2v.2l.4-.2v.3l.5-.3v.2c.3-.2.4-.2.5 0v.2l-.2-.3-.2.1v.1l.1.2h.6l.2-.1.3-.2h.1v.2l.2-.4h.1v.2h.3v.1l.2.1s.1-.2.3 0a.3.3 0 0 0 .2-.1c.2-.2.3 0 .4 0l.2-.2v.1l.1.1.1.1a.3.3 0 0 0 .2 0h.7l.3-.1h.9v.2l.1.2v-.2l.4.2v-.2h.2v.2h.3v-.2h.2l.4-.1Zm0 .2c0 .1.1.2.3.2h.1v-.1l-.3-.1ZM42 16c.3 0 .6 0 .7.3-.2.1-.5 0-.7-.3ZM40.3 3.3v.2h-.8l.8-.2Zm21.2 10.4-.1-.4.3.2-.2.2ZM40 2.5h.5v.1l-.4.2v-.3Zm20.4 16.7h.2c0 .2 0 .3-.3.4l.1-.4ZM21.5 6.9h.2l.2.1v.1h-.4v-.2Zm1.7 1.2.4-.1h.2-.1l-.2.1h-.3Zm1.2-2v.1a.3.3 0 0 1-.3.1V6l.3.2Zm9.4-3.5h-.4v-.2l.4.2Zm-26.6 9 .1-.3c.2.1.2.2 0 .3Zm21-5.4ZM36.5 2V1.7l.3.1-.3.2Zm-17 11.3h.7-.6Zm19.3.3a.1.1 0 0 1 0-.1v-.1h.3v.1l-.3.1Zm-17.3-1.9v.2l-.3-.1v-.2l.3.1Zm17.3 4.5v.1h-.1l-.3-.1h.4Zm-2.5 17.3v-.1l.3.3-.3-.2ZM79.2 13l.3-.2c0 .3 0 .3-.3.2Zm-15.7 3.1.1-.2.2.2h-.3ZM31 3.5a3.3 3.3 0 0 1 0-.1h.4l-.4.2v-.1Zm37 17.4v-.5h.3l-.2-.1-.1-.2.1-.3v-.2h.1c-.3 0-.4.2-.4.4v.8h.1v.1Zm-.8 1.4Zm0 0 .7-.7s0-.2-.2-.3v.1c0 .3-.2.5-.4.7v.1Zm22.7-8.4c0 .2.2.3.6.1l-.6-.1ZM41 .9V1l-.2.1h-.1V1c0-.2.2-.2.3-.3Zm49 14-.2-.2h.4l-.1.3ZM1.8 12.4 2 12c-.2-.1-.3-.1-.4.2Zm78 0-.3.1c0-.2 0-.2.2-.2l.2.1ZM41.5 2.5h-.2v-.1.2l.1.2.1-.3Zm21 10.3s.1-.2.2 0l-.3.1v-.1Zm4.5-.6-.2-.1-.3.1h.4Zm13.5 0h-.3c.1.2.1.2.3 0Zm-63.9-4 .2-.3c-.2 0-.3 0-.2.3ZM1.4 12.1l-.3.1c.1.2.1.2.3-.1Zm88.1 1 .2-.2v.3h-.2V13Zm-45.6 4.8c.2 0 .3 0 .4.2-.3-.1-.4 0-.4.1V18h-.1l-.1-.1h.2Z"/>
</svg>